<?xml version="1.0" encoding="utf-8"?>
<!-- Svg Vector Icons : http://www.onlinewebfonts.com/icon -->
<!DOCTYPE svg PUBLIC "-//W3C//DTD SVG 1.1//EN" "http://www.w3.org/Graphics/SVG/1.1/DTD/svg11.dtd">
<svg version="1.1" xmlns="http://www.w3.org/2000/svg" xmlns:xlink="http://www.w3.org/1999/xlink" x="0px" y="0px" viewBox="0 0 1000 1000" enable-background="new 0 0 1000 1000" xml:space="preserve">
<metadata> Svg Vector Icons : http://www.onlinewebfonts.com/icon </metadata>
<g><g transform="translate(0.000000,512.000000) scale(0.100000,-0.100000)"><path d="M4212.3,4994.2C3386.4,4865.9,2679.3,4360,2303.7,3628c-122.6-239.5-220.4-528.9-262.5-785.6c-42.1-266.3-28.7-741.6,30.7-977.3c21.1-88.1,36.4-161,34.5-162.9c-40.2-15.3-88.1-53.7-118.8-95.8c-38.3-49.8-40.2-82.4-46-553.8c-5.8-572.9,1.9-605.5,138-672.6c69-32.6,82.4-34.5,153.3-9.6c49.8,17.2,93.9,51.7,122.6,93.9c44.1,65.1,44.1,69,38.3,586.4l-5.7,523.1l-55.6,57.5c-32.6,32.6-67.1,59.4-80.5,59.4c-34.5,0-55.6,182-53.6,459.9c13.4,1149.7,850.8,2128.9,1994.8,2328.2c208.9,36.4,605.5,36.4,814.4,0c1151.6-199.3,1989-1197.6,1989-2366.5c0-329.6-13.4-398.6-78.6-433.1c-107.3-53.6-113.1-90.1-113.1-657.2V504.6l57.5-65.1c55.6-63.2,57.5-74.7,57.5-241.4V23.7h-134.1h-134.1v-191.6v-191.6h239.5h239.5V14.1c0,320,3.8,375.6,28.8,387.1c76.6,28.7,86.2,97.7,86.2,647.7v530.8l-53.6,51.7c-28.8,28.7-63.2,57.5-76.7,61.3c-21.1,7.7-17.3,49.8,17.2,208.9c57.5,268.3,63.2,768.4,11.5,1015.6c-118.8,555.7-331.5,952.3-722.4,1341.3c-318.1,320-599.8,494.4-1006,630.4C5026.6,5017.2,4601.2,5055.6,4212.3,4994.2z"/><path d="M4419.2,4237.4c-300.8-38.3-659.2-172.5-914-344.9c-298.9-201.2-601.7-565.3-735.8-879.5c-99.6-237.6-122.6-404.3-122.6-873.8c0-390.9-1.9-415.8-49.8-557.6c-145.6-435,11.5-956.2,423.5-1400.7c86.2-93.9,116.9-149.5,191.6-341.1c47.9-124.6,105.4-256.8,126.5-291.2c19.2-34.5,42.1-111.2,47.9-168.6l13.4-107.3L3258-871.2c-157.1-159-469.5-417.7-624.7-517.4c-55.6-34.5-396.6-197.4-756.9-362.2c-1021.3-463.7-1326-632.3-1565.5-866.1C109.7-2814.2,107.8-2818,102-3404.4C94.4-3962,104-4019.5,209.3-4121c134.1-128.4,975.3-352.6,1805.1-481c1235.9-189.7,2828.3-233.8,4225.2-115c1036.7,88.1,2207.5,318.1,2665.4,525c220.4,99.6,243.4,174.4,233.8,797.1c-7.7,549.9-15.3,580.6-224.2,779.9c-252.9,245.3-590.2,431.2-1678.6,921.7c-663,298.9-776.1,369.8-1211,770.3l-182,168.6l7.7,124.6c7.7,80.5,24.9,151.4,49.8,193.5c23,38.3,76.7,161,118.8,275.9c67.1,178.2,95.8,228,210.8,360.2c329.6,381.3,448.4,664.9,448.4,1059.6c0,166.7-7.7,235.7-40.3,325.8c-32.6,92-46,191.6-61.3,509.7c-11.5,216.5-32.6,461.8-47.9,546.1c-15.3,82.4-32.6,220.4-40.2,304.7c-26.8,343-115,584.4-279.8,764.6c-118.8,130.3-239.5,191.6-477.1,239.5c-115,23-237.6,65.1-335.3,113.1c-195.4,97.7-377.5,151.4-594,176.3C4610.8,4260.4,4607,4260.4,4419.2,4237.4z"/><path d="M8581.2,2972.7c-49.8-86.2-90.1-161-90.1-168.6c0-5.8,53.6-46,120.7-88.1c279.8-180.1,595.9-563.4,733.9-894.9c113.1-268.3,143.7-415.8,155.2-743.5c11.5-339.2-21.1-544.2-126.5-816.3C9242.3-79.8,8951-461.1,8673.1-656.6c-212.7-149.5-199.3-116.9-105.4-279.8c46-78.6,90.1-151.4,99.6-164.8c28.7-36.4,277.9,141.8,486.7,343C9520.1-403.6,9753.9,23.7,9865,541c47.9,222.3,46,710.9-1.9,935.1c-107.3,504-337.2,929.4-689.8,1278.1c-155.2,153.3-440.7,373.7-484.8,373.7C8680.8,3127.9,8631,3057,8581.2,2972.7z"/><path d="M8012.1,1983.9c-90.1-151.4-93.9-166.7-63.2-183.9c76.7-40.2,287.4-277.8,335.3-379.4c69-141.8,90.1-245.3,92-421.6c0-281.7-130.3-553.8-348.8-722.4l-111.1-86.2l40.2-69c23-38.3,67.1-115,97.7-168.6l57.5-101.6l88.1,61.3c346.8,235.7,578.7,676.4,578.7,1099.9c0,295.1-145.6,663-346.8,879.5c-103.5,111.1-281.7,258.7-310.4,258.7C8115.5,2150.6,8065.7,2075.9,8012.1,1983.9z"/></g></g>
</svg>