<?xml version="1.0" encoding="utf-8"?>
<!-- Svg Vector Icons : http://www.onlinewebfonts.com/icon -->
<!DOCTYPE svg PUBLIC "-//W3C//DTD SVG 1.1//EN" "http://www.w3.org/Graphics/SVG/1.1/DTD/svg11.dtd">
<svg version="1.1" xmlns="http://www.w3.org/2000/svg" xmlns:xlink="http://www.w3.org/1999/xlink" x="0px" y="0px" viewBox="0 0 1000 1000" enable-background="new 0 0 1000 1000" xml:space="preserve">
<metadata> Svg Vector Icons : http://www.onlinewebfonts.com/icon </metadata>
<g><g transform="translate(0.000000,512.000000) scale(0.100000,-0.100000)"><path d="M4628.6,5000.3c-1353.7-135.9-2537-965-3121-2186.6c-716.1-1489.7-415.5-3241.6,758.2-4413.4C2884.3-2220,3713.4-2618.3,4586.5-2714l204.9-23v-206.8v-208.7h-137.9c-208.7-1.9-264.2-59.4-264.2-275.7v-126.4h-126.4c-216.4,0-273.8-55.5-275.7-262.3v-139.8h-928.6c-1020.5,0-1032-1.9-1089.5-113c-38.3-72.8-38.3-122.5,0-195.3c57.4-111.1,68.9-113,1089.5-113h928.6v-124.5c0-67,9.6-145.5,23-172.3c47.9-105.3,55.5-105.3,991.8-105.3c773.5,0,871.2,3.8,919.1,32.6c72.8,42.1,95.7,99.6,95.7,245.1v124.5h928.6c1020.5,0,1032,1.9,1089.5,113c38.3,72.8,38.3,122.5,0,195.3c-57.4,111.1-68.9,113-1089.5,113h-928.6v124.5c0,216.4-59.4,277.6-277.6,277.6h-124.5v124.5c0,216.4-59.3,277.6-277.6,277.6h-124.5v210.6c0,170.4,5.8,210.6,26.8,210.6c107.2,0,511.2,68.9,723.8,122.5c1051.2,266.1,1943.4,968.8,2470,1945.4c484.4,896.1,578.3,2031.5,252.8,3021.4c-88.1,268.1-300.6,700.8-459.5,936.3C7414.6,4492.9,6043.6,5143.9,4628.6,5000.3z M5566.9,4561.9c1428.4-231.7,2558-1330.7,2843.3-2766.8c88.1-440.4,70.8-1043.5-42.1-1495.4c-36.4-147.4-72.7-193.4-72.7-93.8c0,68.9-51.7,203-107.2,273.8c-93.8,124.5-248.9,187.6-641.4,266.1c-139.8,26.8-273.8,57.4-300.6,67c-24.9,9.6-120.6,93.8-210.6,187.6c-157,160.8-172.3,172.3-281.5,193.4c-68.9,13.4-172.3,19.2-258.5,11.5c-78.5-5.7-252.8-17.2-386.8-23l-241.2-13.4l-132.1,72.8c-70.8,38.3-197.2,118.7-277.6,176.2c-145.5,105.3-390.6,325.5-377.2,338.9c3.8,5.7,45.9,0,93.8-7.7c141.7-28.7,323.6-23,394.4,11.5c172.3,82.3,333.1,354.2,524.6,888.4c141.7,392.5,160.8,425.1,325.5,551.4c149.3,113,229.8,229.8,229.8,329.3c0,88.1-80.4,216.4-176.2,279.6c-47.9,32.5-185.7,91.9-306.4,130.2c-118.7,38.3-225.9,76.6-235.5,84.2c-11.5,7.7-63.2,67-113,134c-210.6,275.7-419.3,298.7-599.3,65.1c-40.2-53.6-78.5-97.7-86.2-97.7c-7.6-1.9-36.4,30.6-63.2,68.9c-40.2,61.3-47.9,93.8-47.9,220.2c0,80.4,3.8,157,9.6,172.3C5044.1,4621.2,5266.2,4611.7,5566.9,4561.9z M2962.8,3729l124.5-13.4v-107.2c0-59.4-13.4-193.4-28.7-298.7c-36.4-248.9-36.4-381,1.9-509.3c36.4-118.7,185.7-423.2,287.2-585.9c109.1-172.3,369.5-413.6,754.4-695c455.7-337,787-601.2,922.9-741c103.4-105.3,245.1-314,245.1-360c0-13.4-47.9-55.5-107.2-95.7c-145.5-99.6-199.1-183.8-199.1-306.4c1.9-206.8,153.2-390.6,555.3-679.7c350.4-250.8,396.3-294.9,423.2-388.7c36.4-130.2,9.6-417.4-49.8-534.2c-65.1-128.3-229.8-371.4-381-562.9c-120.6-153.2-122.5-155.1-224-166.6c-386.8-47.9-942,21.1-1386.3,168.5c-503.6,168.5-915.2,421.2-1309.7,802.3C2017-785.9,1681.9-125.3,1563.2,676.9c-46,315.9-28.7,840.6,38.3,1160.3c145.5,691.2,515,1353.7,1014.8,1822.8c113,105.3,132.1,114.9,174.2,99.6C2817.3,3750,2893.9,3736.6,2962.8,3729z"/></g></g>
</svg>