<?xml version="1.0" encoding="utf-8"?>
<!-- Svg Vector Icons : http://www.onlinewebfonts.com/icon -->
<!DOCTYPE svg PUBLIC "-//W3C//DTD SVG 1.1//EN" "http://www.w3.org/Graphics/SVG/1.1/DTD/svg11.dtd">
<svg version="1.1" xmlns="http://www.w3.org/2000/svg" xmlns:xlink="http://www.w3.org/1999/xlink" x="0px" y="0px" viewBox="0 0 1000 1000" enable-background="new 0 0 1000 1000" xml:space="preserve">
<metadata> Svg Vector Icons : http://www.onlinewebfonts.com/icon </metadata>
<g><g transform="translate(0.000000,511.000000) scale(0.100000,-0.100000)"><path d="M2598.6,5041.6c-390.2-57.8-681.3-251.9-834.1-553.3c-95-185.8-125.9-346.9-125.9-646.3c0-216.8-6.2-266.3-35.1-289.1c-125.9-107.4-115.6-464.6,24.8-741.2c28.9-55.8,90.8-150.7,138.3-210.6c49.6-59.9,101.2-146.6,117.7-192c97-284.9,311.8-534.8,571.9-664.8c152.8-74.3,171.4-78.5,357.2-78.5s208.5,4.1,361.3,78.5c216.8,103.2,388.2,276.7,505.8,510c45.4,92.9,84.7,181.7,84.7,194.1c0,14.5,43.4,80.5,95,148.7c171.4,220.9,256,437.7,256,660.7c0,136.3-22.7,223-74.3,278.7c-22.7,24.8-33,99.1-37.2,268.4c-8.3,262.2-39.2,402.6-121.8,536.8c-31,49.6-64,105.3-74.3,121.8s-35.1,76.4-53.7,132.1c-66.1,181.7-202.3,295.3-464.6,379.9C3044.6,5056,2827.8,5076.7,2598.6,5041.6z"/><path d="M1772.7,1975.5c-227.1-84.7-679.3-282.9-846.5-367.5c-206.5-107.4-446-336.6-555.4-534.8c-74.3-134.2-198.2-446-198.2-499.6c0-20.6,107.4-6.2,450.1,64c714.4,144.5,2265,441.8,3317.9,638c534.8,97,974.5,181.7,978.7,185.8c33,28.9-410.9,251.9-873.4,439.8l-305.6,125.9l-43.4-57.8c-169.3-223-483.1-419.1-741.2-458.4c-344.8-53.7-722.6,107.4-976.6,412.9c-43.4,51.6-78.5,95-80.5,97C1898.7,2021,1840.9,2002.4,1772.7,1975.5z"/><path d="M4004.6,1015.4C-159.8,230.9,100.3,288.7,104.5,144.2c0-37.2,161-922.9,357.2-1967.6c388.2-2066.7,369.6-1992.4,507.9-1992.4c117.7,0,7676.5,1426.7,7724,1457.6c26.8,16.5,51.6,51.6,59.9,76.4c6.2,26.8-152.8,920.8-351,1988.3c-342.7,1829.3-367.5,1940.8-417.1,1986.2c-28.9,24.8-76.4,43.4-107.4,43.4C7847,1734,6104.4,1409.8,4004.6,1015.4z M7776.8,1341.7c59.9-258.1,245.7-1340,233.3-1352.4c-8.2-8.3-128-16.5-266.3-16.5c-206.5,0-276.7,8.3-396.4,49.6c-485.2,159-850.7,534.8-966.3,993.1c-26.8,103.2-26.8,113.6,4.1,121.8c111.5,26.8,1282.2,245.7,1325.5,247.8C7752,1387.1,7768.6,1374.7,7776.8,1341.7z M4237.9,503.4c10.3-18.6,24.8-72.3,33-117.7c26.8-159,22.7-154.8,163.1-154.8c70.2,0,175.5-14.5,231.3-31c223-66.1,456.3-330.3,433.6-485.2c-14.5-101.2-113.6-185.8-214.7-185.8c-88.8,0-144.5,41.3-216.8,154.9c-26.8,45.4-70.2,99.1-92.9,119.7c-39.2,35.1-192,101.2-206.5,88.8c-2.1-4.1,14.4-107.4,37.2-231.3c90.8-474.9,78.5-439.8,150.7-450.1c37.2-6.2,134.2-20.6,216.8-33c351-51.6,563.7-249.8,625.6-582.2c20.6-117.7,20.6-156.9-8.3-276.7c-64-254-194.1-404.7-462.5-528.6c-76.4-35.1-144.5-68.1-148.7-70.2c-4.1-4.1,4.1-68.1,18.6-142.5c24.8-130.1,24.8-140.4-16.5-181.7c-37.2-35.1-53.7-39.2-101.2-22.7c-49.5,16.5-61.9,37.2-84.6,142.5c-16.5,68.1-31,136.3-37.2,150.7c-4.1,16.5-53.7,24.8-148.7,24.8c-379.9,0-745.3,287-747.4,584.3c0,111.5,107.4,220.9,216.8,220.9c109.4,0,140.4-22.7,237.4-185.8c61.9-105.3,113.6-165.2,181.7-208.5c88.8-55.7,190-80.5,190-43.3c0,8.3-31,177.5-68.1,375.8l-68.1,359.2l-181.7,26.9c-390.2,55.7-584.3,220.9-652.4,551.2c-64,315.9,76.4,590.5,379.9,733c68.1,33,140.4,64,161,70.2c26.8,10.3,31,24.8,14.4,90.9c-24.8,111.5-22.7,220.9,6.2,249.8C4116.1,553,4215.2,546.8,4237.9,503.4z M1853.2,259.8c24.8-64,12.4-454.2-18.6-576c-16.5-68.1-74.3-210.6-125.9-315.9c-156.9-320-466.6-592.6-807.3-704.1c-218.8-72.3-187.9-134.2-334.5,650.4C496.8-303.9,443.1,12,447.2,18.2c8.3,6.2,1174.8,237.4,1379.2,272.5C1834.7,292.8,1847.1,278.4,1853.2,259.8z M8162.9-710.6c0-6.2,55.8-307.6,123.9-668.9c68.1-361.3,123.9-675.1,123.9-695.8c0-35.1-70.2-53.7-693.7-169.3c-379.9-72.3-697.9-123.9-706.1-115.6c-8.3,8.2-18.6,99.1-20.6,204.4C6965.4-1520,7382.5-933.6,7997.7-737.5C8119.5-698.2,8162.9-690,8162.9-710.6z M1463-2094c377.8-99.1,718.5-371.6,906.4-730.9c76.4-144.5,148.7-365.4,128-388.1c-22.7-22.7-1383.3-272.5-1397.8-256c-10.3,12.4-266.3,1348.2-266.3,1391.6C833.3-2034.1,1271-2044.4,1463-2094z"/><path d="M4085.2-180c-86.7-51.6-132.1-109.4-154.9-187.9c-28.9-99.1,12.4-235.4,86.7-299.4c57.8-47.5,216.8-105.3,237.4-86.7c8.3,8.3-92.9,594.6-105.3,607C4147.1-144.9,4118.2-159.4,4085.2-180z"/><path d="M4603.4-1383.7c16.5-82.6,45.4-241.6,64-351c20.6-111.5,43.3-202.3,53.7-202.3c39.2,0,159,86.7,202.3,146.6c97,136.3,86.7,336.5-20.6,439.8C4845-1294.9,4698.4-1235,4622-1235h-47.5L4603.4-1383.7z"/><path d="M8833.9,687.2c-101.2-20.6-218.8-43.4-260.1-51.6l-74.3-12.4l28.9-148.7c14.5-80.5,28.9-150.7,33-152.8c2.1-2.1,80.5,10.3,175.5,26.8c95,16.5,173.4,28.9,177.6,24.8c20.7-28.9,258.1-1391.6,245.7-1404c-10.3-10.3-88.8-18.6-177.5-20.6c-132.1-2.1-159-8.3-159-37.2c0-18.6,28.9-192,64-384l66.1-351l167.3,55.8c90.8,31,173.4,49.5,179.6,41.3c16.5-18.6,272.5-1387.5,262.2-1397.8c-6.2-6.2-322.1-68.1-704.1-140.4c-565.7-107.4-695.8-126-706.1-101.2c-16.5,47.5-10.3,441.9,10.3,530.6c10.3,45.4,16.5,84.6,12.4,88.8c-4.1,2.1-427.4-76.4-941.5-173.4c-887.8-171.4-939.4-183.8-1036.5-249.8c-57.8-37.2-111.5-68.1-119.7-68.1c-8.3,0-47.5-14.5-88.8-31l-72.3-28.9l28.9-130.1c22.7-111.5,22.7-136.3-4.1-175.5c-35.1-53.7-113.6-61.9-159-16.5c-16.5,14.5-37.2,72.3-45.4,125.9c-20.6,144.5-26.8,152.8-115.6,152.8c-43.3,0-142.5,10.3-218.8,24.8c-136.3,22.7-167.2,18.6-1059.2-146.6c-505.8-92.9-925-171.4-933.2-173.4c-6.2-2.1,24.8-64,68.1-138.3c84.7-136.3,192-433.6,167.2-456.3c-14.5-12.4-1329.7-266.3-1381.3-266.3c-12.4,0-45.4,123.9-78.5,305.6c-31,167.3-59.9,305.6-61.9,307.6c-6.2,10.3-268.4-41.3-284.9-55.8c-24.8-22.7,128-809.4,165.2-850.6c18.6-20.7,47.5-41.3,68.1-47.5c47.5-14.5,7742.5,1430.8,7779.7,1461.8c16.5,12.4,37.2,43.4,47.5,68.1c10.3,33-90.8,625.6-344.8,1973.8C9356.3-275,9189.1,608.7,9182.9,629.4c-10.3,33-111.5,99.1-146.6,95C9028,724.3,8937.2,705.7,8833.9,687.2z"/></g></g>
</svg>