<?xml version="1.0" encoding="utf-8"?>
<!-- Svg Vector Icons : http://www.onlinewebfonts.com/icon -->
<!DOCTYPE svg PUBLIC "-//W3C//DTD SVG 1.1//EN" "http://www.w3.org/Graphics/SVG/1.1/DTD/svg11.dtd">
<svg version="1.1" xmlns="http://www.w3.org/2000/svg" xmlns:xlink="http://www.w3.org/1999/xlink" x="0px" y="0px" viewBox="0 0 1000 1000" enable-background="new 0 0 1000 1000" xml:space="preserve">
<metadata> Svg Vector Icons : http://www.onlinewebfonts.com/icon </metadata>
<g><g transform="translate(0.000000,511.000000) scale(0.100000,-0.100000)"><path d="M1729.8,4243c-890.5-115-1621.3-210.9-1623.4-210.9c-4.3-2.1-6.4-1862-6.4-4135.2c0-3866.7,2.1-4133,36.2-4133c19.2,0,762.7,91.6,1651.1,204.5L3402.2-3827l1595.7-202.4l1593.6-202.4l1585,200.3c871.4,108.7,1617,204.5,1655.4,210.9l68.2,12.8V323v4133h-44.7c-23.4,0-767-91.6-1651.1-204.5L6597.8,4047l-1540.3,193.9C4211.7,4349.6,3481,4439,3434.1,4443.3C3387.3,4449.7,2620.3,4358.1,1729.8,4243z M8555.7,2826.3c336.6-185.4,451.6-562.4,283.3-933.1c-80.9-176.8-296.1-509.2-449.5-690.3c-149.1-181.1-178.9-179-338.7,21.3c-249.3,315.3-445.3,649.8-496.4,852.2c-74.6,302.5,112.9,662.6,411.2,779.7C8136,2924.3,8400.2,2909.4,8555.7,2826.3z M1942.8,1398.9c641.3-134.2,1033.3-803.2,830.9-1408.2c-102.3-306.8-308.9-662.6-634.9-1101.4c-306.8-413.3-389.9-481.5-507-419.7C1512.5-1466.5,933-642,773.2-311.8C647.5-47.7,609.2,71.7,596.4,242.1c-42.6,539,334.5,1035.4,877.7,1156.8C1644.6,1437.3,1761.7,1437.3,1942.8,1398.9z M8280.9,779V636.2l-78.8,14.9c-44.7,6.4-228,23.4-404.8,38.4c-564.6,44.7-994.9-32-1348.6-238.6c-240.7-140.6-1291-945.9-2464.9-1887.6l-643.4-517.7l-843.7-14.9c-948-17.1-865-32-818.1,153.4c34.1,136.4,63.9,144.9,343,102.3c285.5-42.6,760.6-32,975.7,23.4c187.5,51.1,421.8,159.8,590.1,277c78.8,55.4,703,536.9,1389,1073.8c686,534.7,1295.3,1007.7,1350.7,1050.3c115,87.3,264.2,164,364.3,189.6c36.2,8.5,409,14.9,828.7,17l760.6,2.1V779z"/><path d="M8076.4,2498.2c-274.8-168.3-204.5-549.7,112.9-609.3c55.4-10.7,100.1,0,172.6,36.2c123.6,61.8,176.8,134.2,189.6,257.8C8579.1,2432.2,8287.3,2626,8076.4,2498.2z"/><path d="M1570,815.2c-174.7-57.5-317.4-196-362.2-353.7C1094.9,58.9,1457.1-316.1,1849.1-201c142.7,40.5,277,151.3,336.6,279.1c53.3,112.9,59.7,315.3,14.9,424c-42.6,100.1-155.5,221.6-253.5,272.7C1853.3,821.6,1655.2,842.9,1570,815.2z"/></g></g>
</svg>