<?xml version="1.0" encoding="utf-8"?>
<!-- Svg Vector Icons : http://www.onlinewebfonts.com/icon -->
<!DOCTYPE svg PUBLIC "-//W3C//DTD SVG 1.1//EN" "http://www.w3.org/Graphics/SVG/1.1/DTD/svg11.dtd">
<svg version="1.1" xmlns="http://www.w3.org/2000/svg" xmlns:xlink="http://www.w3.org/1999/xlink" x="0px" y="0px" viewBox="0 0 1000 1000" enable-background="new 0 0 1000 1000" xml:space="preserve">
<metadata> Svg Vector Icons : http://www.onlinewebfonts.com/icon </metadata>
<g><g transform="translate(0.000000,512.000000) scale(0.100000,-0.100000)"><path d="M1516.9,4990.8c-231.6-55.5-488.2-239.3-616.4-442.2C705.2,4246.1,686,3844.1,846.9,3511c68.9-143.6,306.3-377.1,451.8-447.9c252.7-120.6,562.8-141.7,809.8-53.6c411.6,145.5,685.3,536,687.2,978.2C2795.6,4652,2165.8,5147.8,1516.9,4990.8z"/><path d="M7991.2,4990.8c-248.9-59.4-484.3-229.7-631.7-457.5C7034,4035.5,7231.2,3325.3,7767.2,3065c419.2-204.8,857.6-132.1,1186.9,195.3c218.2,216.3,304.4,421.2,304.4,729.4c0,93.8-13.4,206.7-30.6,268C9068.9,4799.4,8527.2,5121,7991.2,4990.8z"/><path d="M1409.7,2800.8c-254.6-67-446-176.1-643.2-373.3c-141.7-139.7-187.6-202.9-252.7-335c-128.3-262.3-141.7-331.2-151.2-865.3l-9.6-474.8h1259.6l1261.5-1.9l346.5-371.4L3569,5.8v-798.3c1.9-685.3-3.8-805.9-28.7-855.7c-34.5-68.9-773.4-1395.5-783-1407c-3.8-3.8-61.3,34.5-126.3,82.3c-402,300.5-930.4,371.4-1393.6,189.5c-331.2-130.2-589.6-369.5-738.9-685.3c-112.9-237.4-126.4-317.8-135.9-836.6l-9.6-474.8h1409h1409v426.9c0,461.4-19.1,604.9-105.3,809.8l-49.8,114.9l484.3,865.3l484.3,865.3l1029.9-3.8l1029.9-5.7l474.7-850l474.8-849.9l-53.6-118.7c-90-201-112.9-363.7-112.9-832.7V-4780h1408.9h1410.9l-11.5,474.8c-9.6,511.1-23,599.2-128.3,821.3c-147.4,319.7-415.4,570.5-746.6,700.6c-459.4,180-993.5,111-1374.5-178c-55.5-42.1-107.2-76.6-114.9-76.6c-9.6,0-216.3,358-459.4,794.5L6367.8-1449v685.3l1.9,683.4l386.7,415.4l386.7,415.4h1252l1252,1.9l-11.5,474.8c-7.7,425-13.4,488.2-55.5,626c-67,229.7-170.4,398.2-348.4,574.3c-279.5,275.7-545.6,390.5-941.8,407.7c-191.4,7.7-258.4,1.9-392.4-32.5c-503.5-126.3-888.3-490.1-1024.2-970.6c-23-80.4-34.5-218.2-40.2-472.8l-9.6-359.9l-402-430.7l-402-428.8H5010.5H3999.8l-409.7,438.4l-409.7,440.3l-11.5,350.3c-9.6,229.7-23,388.6-44,463.3c-132.1,474.8-518.8,844.2-1014.6,968.7C1909.3,2852.5,1608.7,2850.6,1409.7,2800.8z"/><path d="M1499.6-539.7c-352.2-97.7-637.5-384.8-731.3-739c-38.3-139.7-36.4-405.8,1.9-536c99.5-335,331.2-583.9,650.9-698.7c664.3-241.2,1374.5,260.4,1374.5,968.7c-1.9,476.7-314,882.5-773.4,1005C1894-505.3,1624.1-505.3,1499.6-539.7z"/><path d="M7968.2-539.7c-455.6-126.4-763.8-530.3-765.7-1005c0-708.3,710.2-1209.9,1374.5-968.7c164.6,59.4,296.7,147.4,409.7,268c291,319.7,356.1,781.1,164.6,1177.3c-68.9,141.7-308.2,381-448,448C8481.2-514.9,8182.6-482.3,7968.2-539.7z"/></g></g>
</svg>