<?xml version="1.0" encoding="utf-8"?>
<!-- Svg Vector Icons : http://www.onlinewebfonts.com/icon -->
<!DOCTYPE svg PUBLIC "-//W3C//DTD SVG 1.1//EN" "http://www.w3.org/Graphics/SVG/1.1/DTD/svg11.dtd">
<svg version="1.1" xmlns="http://www.w3.org/2000/svg" xmlns:xlink="http://www.w3.org/1999/xlink" x="0px" y="0px" viewBox="0 0 1000 1000" enable-background="new 0 0 1000 1000" xml:space="preserve">
<metadata> Svg Vector Icons : http://www.onlinewebfonts.com/icon </metadata>
<g><path d="M885.9,210.8H742.8v-17.3c0-78.9-64.2-143.1-143.1-143.1H400.2c-78.9,0-143.1,64.2-143.1,143.1v17.3H114.1c-57.5,0-104.1,46.6-104.1,104v494.3c0,53.7,40.8,97.4,92.9,103c-1,2.9-1.9,5.9-1.9,9.2c0,15.5,12.6,28.2,28.1,28.2h49.9c15.5,0,28.2-12.7,28.2-28.2c0-2.9-0.9-5.6-1.7-8.1h588.7c-0.8,2.6-1.7,5.2-1.7,8.1c0,15.5,12.7,28.2,28.2,28.2h50c15.5,0,28.1-12.7,28.1-28.2c0-3.3-0.8-6.4-1.8-9.2c52.1-5.7,92.9-49.4,92.9-103V314.8C990,257.5,943.4,210.8,885.9,210.8z M800.9,243.3h48.7v622.4h-48.7V243.3z M335.2,193.5c0-35.9,29.2-65,65-65h199.5c35.8,0,65,29.1,65,65v17.3H335.2V193.5z M150.4,243.3h48.8v622.4h-48.8V243.3z"/></g>
</svg>